Coordinates
version=1
nRows=20
nColumns=34
inDegrees=yes

Units are S.I. units (second, meters, Newtons, ...)
If the header above contains a line with 'inDegrees', this indicates whether rotational values are in degrees (yes) or radians (no).

endheader
time	pelvis_tilt	pelvis_list	pelvis_rotation	pelvis_tx	pelvis_ty	pelvis_tz	hip_flexion_r	hip_adduction_r	hip_rotation_r	knee_angle_r	ankle_angle_r	subtalar_angle_r	mtp_angle_r	hip_flexion_l	hip_adduction_l	hip_rotation_l	knee_angle_l	ankle_angle_l	subtalar_angle_l	mtp_angle_l	lumbar_extension	lumbar_bending	lumbar_rotation	arm_flex_r	arm_add_r	arm_rot_r	elbow_flex_r	pro_sup_r	arm_flex_l	arm_add_l	arm_rot_l	elbow_flex_l	pro_sup_l
      0.00000000	      0.54377390	     -1.05591753	      1.61762452	      0.06675814	      1.50033908	     -0.31053463	      0.76243283	     -1.48286009	     -7.08663224	     11.91914584	     -0.24062815	     -9.76796811	      0.00000000	      2.07518116	     -3.12490256	     -7.08960159	     14.30718263	      6.90921450	     -4.49550368	      0.00000000	     -9.69350397	      0.56732260	     -2.14254525	     -4.59281336	    -13.42463857	     -0.91224530	     27.99344077	     85.77170327	     -4.71506501	    -14.94465892	      4.13889360	     27.32693628	     78.70203437
      0.01666670	     -0.28996318	     -1.37739750	      1.11214784	      0.06537115	      1.49585694	     -0.31031683	      1.76510475	     -0.94005290	     -6.27417243	     11.60704665	     -0.42213633	    -10.24744220	      0.00000000	      2.75693536	     -3.20507018	     -7.09401125	     13.95366779	      6.34383717	     -7.53448160	      0.00000000	     -9.57768294	      0.76658328	     -1.47323818	     -5.55760481	    -13.37196849	     -2.31650937	     30.20167432	     84.65809051	     -5.83720640	    -14.78537711	      2.99677970	     29.10664634	     77.94204069
      0.03333330	     -0.98082813	     -1.62356775	      0.44830596	      0.06715685	      1.49676365	     -0.30963206	      2.75003788	     -0.61684376	     -6.07509959	     11.76799039	     -1.91809319	    -12.74210437	      0.00000000	      3.42826733	     -3.25760515	     -7.18696198	     13.93038889	      6.89739243	     -6.07108873	      0.00000000	     -8.99712747	      1.16591509	     -0.85386802	     -6.25060365	    -13.48110746	     -3.61087794	     31.22640532	     83.24556802	     -6.59880908	    -14.27986251	      1.64271537	     29.60888020	     76.87175449
      0.05000000	     -2.30481422	     -1.79917374	      0.36149489	      0.06377270	      1.48965270	     -0.31054765	      5.23719667	     -0.57138204	     -6.63879225	     13.43010471	     -0.78724849	    -13.22318632	      0.00000000	      5.56579204	     -3.41635346	     -7.25242347	     15.12829396	      7.62824981	     -5.40716363	      0.00000000	     -8.13646226	      1.41336033	     -0.72924499	     -6.90391060	    -13.65912655	     -4.39228704	     32.35175329	     82.09638812	     -7.37695084	    -14.30330106	      0.88901437	     31.14738501	     76.00384703
      0.06666670	     -3.30649067	     -1.92325209	      0.11133562	      0.06069531	      1.48545008	     -0.30927962	      7.33675912	     -0.45520981	     -6.41381171	     15.05913279	      0.49300086	    -13.31547665	      0.00000000	      7.41833041	     -3.63618700	     -7.50654935	     16.62872096	      8.85333656	     -5.28838209	      0.00000000	     -7.83301459	      1.53072533	     -0.61592250	     -7.35818140	    -13.93254777	     -4.82850424	     33.70472201	     81.16686577	     -8.03470073	    -14.44761952	      0.23159906	     32.76940234	     75.24892505
      0.08333330	     -3.98944691	     -1.88075451	     -0.12898305	      0.06204846	      1.48430910	     -0.30960943	      8.63098693	     -0.56387598	     -6.23680036	     15.91181316	      1.52383157	    -12.71685360	      0.00000000	      8.66459594	     -3.60111286	     -7.34659510	     17.61921293	      9.72066644	     -5.17792087	      0.00000000	     -7.74000120	      1.51027582	     -0.72355355	     -7.83234362	    -14.20550176	     -5.27389723	     35.20304224	     79.19385484	     -8.99758613	    -14.36046597	     -1.20569459	     34.62106122	     73.57921183
      0.10000000	     -4.79954170	     -1.77912215	     -0.55280951	      0.06160088	      1.47810090	     -0.30871059	     10.03901716	     -0.65134015	     -5.44891808	     16.70594000	      2.61901592	    -11.97999458	      0.00000000	     10.11797422	     -3.61835829	     -7.55276205	     18.64033554	     10.53105189	     -5.15035205	      0.00000000	     -7.56930326	      1.39716985	     -0.75573618	     -8.21529496	    -14.61639846	     -5.04293653	     36.44327750	     78.80806201	     -9.78571875	    -14.64963055	     -1.32756326	     35.82279169	     73.28254425
      0.11666670	     -5.58845162	     -1.74757822	     -0.53581185	      0.05979079	      1.48014936	     -0.31059062	     11.29391135	     -0.79608227	     -5.23529709	     17.13192961	      3.19766211	    -11.09819023	      0.00000000	     11.70274858	     -3.64952456	     -7.29257640	     19.66723767	     11.05951999	     -5.08078786	      0.00000000	     -7.56292776	      1.38126517	     -0.76335463	     -8.44159501	    -14.90608543	     -4.87557892	     37.46616187	     78.37127864	    -10.25015818	    -14.79355293	     -1.62440555	     37.21367924	     72.96920545
      0.13333330	     -5.69336849	     -1.69568724	     -0.44393566	      0.05897187	      1.48100475	     -0.30880260	     11.39610444	     -0.85448177	     -4.94100381	     17.08473784	      3.18713307	    -10.83759798	      0.00000000	     12.28896195	     -3.69470094	     -7.28050753	     20.30844407	     10.98681867	     -5.14956616	      0.00000000	     -8.04988404	      1.28799904	     -0.79781553	     -8.31303237	    -15.08257613	     -4.89903922	     37.56885141	     78.31744722	    -10.17926695	    -14.97201529	     -1.70021236	     37.33915898	     72.93402854
      0.15000000	     -6.51953924	     -1.79287278	     -0.46197691	      0.05698933	      1.47282126	     -0.31131779	     12.62106721	     -0.84946227	     -4.96287931	     17.77316579	      3.90218255	     -9.90258999	      0.00000000	     13.85265454	     -3.85929955	     -7.00639121	     21.45067271	     11.32757847	     -5.63132464	      0.00000000	     -7.92066824	      1.48324881	     -0.82660054	     -8.77106303	    -15.53568965	     -4.64617108	     38.92529809	     77.96363526	    -11.02201690	    -15.14636768	     -1.99946125	     39.16109482	     72.73272134
      0.16666670	     -6.65884364	     -1.75275235	     -0.39604371	      0.05425174	      1.47711031	     -0.30864495	     12.93826988	     -0.92712424	     -4.77077606	     18.01680396	      4.01288509	     -9.75025592	      0.00000000	     14.41752709	     -3.84643471	     -6.88185643	     22.19017020	     11.57164032	     -5.73128461	      0.00000000	     -8.52056292	      1.46532830	     -0.86432192	     -8.61003053	    -15.69457410	     -4.64826257	     39.10207519	     77.89417529	    -10.94564679	    -15.36689346	     -2.10147761	     39.37564531	     72.69730670
      0.18333330	     -7.43150105	     -1.93244164	     -0.29478204	      0.05215964	      1.47395892	     -0.30923375	     14.20772507	     -0.81038229	     -4.89236382	     18.78675998	      4.64000797	     -9.32336023	      0.00000000	     15.88304538	     -4.08960635	     -6.65179654	     23.36911906	     12.11288540	     -5.73034331	      0.00000000	     -8.52684727	      1.64118530	     -0.92158572	     -8.91778693	    -16.06977744	     -4.42641995	     40.16082906	     77.60221841	    -11.58547600	    -15.62494226	     -2.29164665	     40.99852951	     72.59257724
      0.20000000	     -7.47782034	     -1.96733719	     -0.21827693	      0.05440160	      1.47472263	     -0.30756165	     14.32600475	     -0.76112689	     -4.78317908	     19.09889902	      4.65314184	     -9.19863858	      0.00000000	     16.18870181	     -4.15762042	     -6.53615656	     23.97175046	     12.13484925	     -5.79933856	      0.00000000	     -8.95104941	      1.62828644	     -0.91704317	     -8.93404860	    -16.17501677	     -4.41479845	     40.21022671	     77.55258842	    -11.68676034	    -15.89423511	     -2.36172784	     41.14214138	     72.57241815
      0.21666670	     -7.73849291	     -2.17166937	     -0.04436558	      0.05349926	      1.47787262	     -0.30649682	     14.61237821	     -0.57607123	     -4.89359133	     19.20992555	      4.96671350	     -8.74112209	      0.00000000	     16.78231187	     -4.33193462	     -6.24146200	     24.57123462	     12.39181277	     -5.87300276	      0.00000000	     -9.27562947	      1.83401988	     -0.92507481	     -9.17414548	    -16.42392477	     -4.27212038	     40.53568282	     77.37358622	    -12.22698448	    -16.20772506	     -2.27470015	     42.28380051	     72.53045306
      0.23333330	     -7.90490580	     -2.16656966	      0.09073603	      0.04972746	      1.47425459	     -0.30686134	     14.84373049	     -0.58074068	     -4.80708511	     19.27927438	      5.00015600	     -8.63006918	      0.00000000	     17.15915774	     -4.32820177	     -6.16242324	     24.97275912	     12.36255431	     -5.79106905	      0.00000000	     -9.74073605	      1.70805746	     -0.93384163	     -9.21643691	    -16.51049098	     -4.24343350	     40.57633698	     77.34958663	    -12.27669980	    -16.62440948	     -2.34631158	     42.41366591	     72.51723704
      0.25000000	     -8.06348642	     -2.15110626	      0.20237414	      0.05312288	      1.47256670	     -0.30687377	     15.03848659	     -0.62858637	     -4.79330013	     19.20281320	      5.06215857	     -8.62368549	      0.00000000	     17.31823619	     -4.30046262	     -6.19663626	     25.04916396	     12.38465648	     -5.78976400	      0.00000000	    -10.14924396	      1.76238218	     -0.89701837	     -9.43531659	    -16.58684852	     -4.24179592	     40.49439482	     77.34376191	    -12.54003743	    -16.81268252	     -2.37252866	     42.36999506	     72.51293510
      0.26666670	     -9.04783067	     -2.23786906	      0.21189797	      0.05081302	      1.47081560	     -0.30729819	     16.47839323	     -0.66479107	     -5.09591674	     19.74433557	      5.88705106	     -8.03927423	      0.00000000	     18.77452679	     -4.33540764	     -5.85872702	     25.69421540	     13.14060191	     -5.08118257	      0.00000000	     -9.84287846	      1.72679388	     -0.68630917	    -10.20428343	    -16.98934733	     -4.01171767	     41.24026248	     77.24156666	    -13.70759930	    -17.57490179	     -2.13408235	     44.87966680	     72.51702763
      0.28333330	     -9.18285939	     -2.26646863	      0.27958706	      0.05262698	      1.46933404	     -0.30532405	     16.63224470	     -0.63799594	     -5.11099343	     19.71198301	      5.89564787	     -8.02931200	      0.00000000	     18.89462972	     -4.34813481	     -5.87941519	     25.70343545	     13.07889592	     -5.05745567	      0.00000000	    -10.25424778	      1.70529443	     -0.65709066	    -10.47849519	    -17.07697188	     -4.02582168	     41.12397217	     77.23342390	    -14.05359656	    -17.79280490	     -2.18319476	     44.74818879	     72.50760367
      0.30000000	     -9.29645900	     -2.27976325	      0.26539718	      0.05206563	      1.46665406	     -0.30717291	     16.83853856	     -0.65401154	     -5.17581631	     19.77875883	      5.93939463	     -8.05353234	      0.00000000	     19.04806960	     -4.37335604	     -5.89144551	     25.78691507	     13.04312086	     -5.03147847	      0.00000000	    -10.72356606	      1.74491902	     -0.61065085	    -10.87232449	    -17.25731802	     -4.05629740	     40.96521567	     77.22537116	    -14.51664078	    -18.12437833	     -2.25882102	     44.61006667	     72.49685765
      0.31666670	    -10.29655293	     -2.37762539	      0.27977207	      0.05164710	      1.46023689	     -0.30661427	     18.27405463	     -0.61164295	     -5.28279121	     20.56790337	      6.74833214	     -7.66454836	      0.00000000	     20.50291624	     -4.53611619	     -5.87874796	     26.41504372	     13.68320845	     -4.61668130	      0.00000000	    -10.08037080	      1.66011644	     -0.40578337	    -12.24037557	    -17.74656631	     -3.96020226	     42.07826379	     77.16591223	    -16.38042837	    -18.87669282	     -2.44626955	     47.15493384	     72.44911440
